<?xml version="1.0" encoding="UTF-8" standalone="no" ?>
<!DOCTYPE svg PUBLIC "-//W3C//DTD SVG 1.1//EN" "http://www.w3.org/Graphics/SVG/1.1/DTD/svg11.dtd">
<svg xmlns="http://www.w3.org/2000/svg" xmlns:xlink="http://www.w3.org/1999/xlink" version="1.1" width="2050" height="780" viewBox="0 0 2050 780" xml:space="preserve">
<desc>Created with Fabric.js 5.3.0</desc>
<defs>
</defs>
<g transform="matrix(1 0 0 1 1025.0000199945 375.0000000049)" id="A0xPYlg_qbaNBCqk4jQPn"  >
<linearGradient id="SVGID_275" gradientUnits="userSpaceOnUse" gradientTransform="matrix(1 0 0 1 0 0)"  x1="-187.0872614852" y1="1192.5509165552999" x2="1673.8339032878" y2="-570.0056334325001">
<stop offset="0%" style="stop-color:#9BAFD9;stop-opacity: 1"/>
<stop offset="42.52368727354917%" style="stop-color:#6F7BF7;stop-opacity: 1"/>
<stop offset="100%" style="stop-color:#103783;stop-opacity: 1"/>
</linearGradient>
<path style="stroke: none; stroke-width: 1; stroke-dasharray: none; stroke-linecap: butt; stroke-dashoffset: 0; stroke-linejoin: miter; stroke-miterlimit: 4; fill: url(#SVGID_275); fill-rule: nonzero; opacity: 1;" vector-effect="non-scaling-stroke"  transform=" translate(-1025, -375)" d="M 2049.50174 698.87651 L 2048.90011 698.87651 L 2049.00417 699.09537 L 1947.4993800000002 749.50434 L 1845.9945900000002 699.09537 L 1846.0986500000001 698.87651 L 1845.4970200000002 698.87651 L 1845.4970200000002 698.8734900000001 L 1844.5018700000003 698.8734900000001 L 1844.5018700000003 699.3721700000001 L 1843.9002400000004 699.3721700000001 L 1844.0043000000003 699.59103 L 1742.4995100000003 750 L 1640.9947200000004 699.59103 L 1641.0987800000003 699.3721700000001 L 1640.4971500000004 699.3721700000001 L 1640.4971500000004 698.8734900000001 L 1639.5020000000004 698.8734900000001 L 1639.5020000000004 698.87651 L 1638.9003700000005 698.87651 L 1639.0044300000004 699.09537 L 1537.4996400000005 749.50434 L 1435.9948500000005 699.09537 L 1436.0989100000004 698.87651 L 1435.4972800000005 698.87651 L 1435.4972800000005 698.8734900000001 L 1434.5021300000005 698.8734900000001 L 1434.5021300000005 698.87651 L 1433.9005000000006 698.87651 L 1434.0045600000005 699.09537 L 1332.4997700000006 749.50434 L 1230.9949800000006 699.09537 L 1231.0990400000005 698.87651 L 1230.4974100000006 698.87651 L 1230.4974100000006 698.8734900000001 L 1229.5022600000007 698.8734900000001 L 1229.5022600000007 698.87651 L 1228.9006300000008 698.87651 L 1229.0046900000007 699.09537 L 1127.4999000000007 749.50434 L 1025.9951100000008 699.09537 L 1026.0991700000006 698.87651 L 1025.4975400000008 698.87651 L 1025.4975400000008 698.8734900000001 L 1024.5023900000008 698.8734900000001 L 1024.5023900000008 699.3721700000001 L 1023.9007600000008 699.3721700000001 L 1024.0048200000008 699.59103 L 922.5000300000008 750 L 820.9952400000009 699.59103 L 821.0993000000009 699.3721700000001 L 820.4976700000009 699.3721700000001 L 820.4976700000009 698.8734900000001 L 819.5025200000009 698.8734900000001 L 819.5025200000009 699.3721700000001 L 818.9008900000009 699.3721700000001 L 819.0049500000009 699.59103 L 717.500160000001 750 L 615.995370000001 699.59103 L 616.099430000001 699.3721700000001 L 615.497800000001 699.3721700000001 L 615.497800000001 698.8734900000001 L 614.502650000001 698.8734900000001 L 614.502650000001 698.87651 L 613.901020000001 698.87651 L 614.005080000001 699.09537 L 512.5002900000011 749.50434 L 410.9955000000011 699.09537 L 411.0995600000011 698.87651 L 410.4979300000011 698.87651 L 410.4979300000011 698.8734900000001 L 409.50278000000105 698.8734900000001 L 409.50278000000105 698.87651 L 408.90115000000105 698.87651 L 409.00521000000106 699.09537 L 307.50042000000104 749.50434 L 205.99563000000103 699.09537 L 206.09969000000103 698.87651 L 205.49806000000103 698.87651 L 205.49806000000103 698.8734900000001 L 204.50291000000104 698.8734900000001 L 204.50291000000104 698.87651 L 203.90128000000104 698.87651 L 204.00534000000104 699.09537 L 102.50055000000104 749.50434 L 0.9957600000010416 699.09537 L 1.0998200000010416 698.87651 L 0.49819000000104163 698.87651 L 0.49819000000104163 698.8734900000001 L 1.0416112417033219e-12 698.8734900000001 L 1.0416112417033219e-12 1.1368683772161603e-13 L 2050.000000000001 1.1368683772161603e-13 L 2050.000000000001 698.8734900000001 L 2049.501760000001 698.8734900000001 z M 320.16498 253.68 L 320.16498 299.844 L 273.51698 299.844 L 273.51698 253.68 L 248.54098 253.68 L 248.54098 371.468 L 273.51698 371.468 L 273.51698 320.63 L 320.16498 320.63 L 320.16498 371.468 L 345.05998 371.468 L 345.05998 253.68 z M 432.07198 253.196 L 401.53697999999997 253.196 L 359.96497999999997 371.468 L 386.87397999999996 371.468 L 395.41398 343.43 L 438.35598 343.43 L 446.89598 371.468 L 473.80498 371.468 z M 401.69798 322.483 C 410.07665 295.359 415.15231 278.35967 416.92497999999995 271.485 C 417.35497999999995 273.41833 418.0666499999999 276.05 419.05997999999994 279.38 C 420.05397999999997 282.71 424.49864999999994 297.07767 432.39397999999994 322.483 z M 561.38098 350.843 L 513.6049800000001 350.843 L 513.6049800000001 253.68 L 488.62898000000007 253.68 L 488.62898000000007 371.468 L 561.38098 371.468 z M 674.37498 267.456 C 664.7876500000001 257.036 650.94365 251.82600000000002 632.84298 251.82600000000002 C 614.74231 251.82600000000002 600.84465 256.99600000000004 591.14998 267.336 C 581.45531 277.67533000000003 576.60798 292.647 576.60798 312.25100000000003 C 576.60798 331.85567000000003 581.44198 346.89467 591.10998 357.36800000000005 C 600.77798 367.84200000000004 614.63531 373.07900000000006 632.68198 373.07900000000006 C 650.7286499999999 373.07900000000006 664.58598 367.84200000000004 674.25398 357.36800000000005 C 683.92198 346.8946700000001 688.7559799999999 331.90933000000007 688.7559799999999 312.41200000000003 C 688.7559799999999 292.86133 683.9623099999999 277.87600000000003 674.3749799999999 267.456 z M 610.36498 282.643 C 615.41365 275.95633 622.90631 272.613 632.8429799999999 272.613 C 652.6623099999999 272.613 662.5719799999999 285.87933 662.5719799999999 312.412 C 662.5719799999999 338.892 652.6086499999999 352.13199999999995 632.68198 352.13199999999995 C 622.7453099999999 352.13199999999995 615.2793099999999 348.80166999999994 610.2839799999999 342.14099999999996 C 605.2893099999999 335.48099999999994 602.79198 325.57133 602.79198 312.412 C 602.79198 299.25333 605.3163099999999 289.33033 610.36498 282.643 z M 711.55598 352.293 C 709.62265 364.96833 706.91031 378.44967 703.4189799999999 392.737 L 721.1439799999999 392.737 C 727.8039799999999 377.85900000000004 732.53031 364.99533 735.3229799999999 354.146 L 734.11498 352.293 z M 828.86098 253.68 L 803.88498 253.68 L 803.88498 371.468 L 828.86098 371.468 z M 857.70398 296.219 L 873.57498 296.219 L 876.87898 253.68 L 854.40098 253.68 z M 1005.54298 279.219 L 1006.26798 279.219 C 1005.62398 294.043 1005.2616499999999 303.174 1005.18098 306.61199999999997 C 1005.1003099999999 310.04932999999994 1005.05998 313.08399999999995 1005.05998 315.71599999999995 L 1005.05998 371.46799999999996 L 1028.34398 371.46799999999996 L 1028.34398 253.67999999999995 L 994.3439800000001 253.67999999999995 L 964.7769800000001 343.75299999999993 L 964.2929800000001 343.75299999999993 L 936.4169800000001 253.67999999999995 L 902.4179800000001 253.67999999999995 L 902.4179800000001 371.46799999999996 L 924.7349800000001 371.46799999999996 L 924.7349800000001 316.68199999999996 C 924.7349800000001 310.39799999999997 924.2246500000001 297.85666999999995 923.2039800000001 279.05799999999994 L 923.9289800000001 279.05799999999994 L 952.2889800000002 371.46799999999996 L 975.1699800000001 371.46799999999996 z M 1173.60498 350.843 L 1125.82898 350.843 L 1125.82898 253.68 L 1100.8529800000001 253.68 L 1100.8529800000001 371.468 L 1173.60498 371.468 z M 1265.04798 325.625 C 1265.04798 334.75633 1263.20831 341.457 1259.52898 345.727 C 1255.84965 349.99699999999996 1249.92798 352.13199999999995 1241.76398 352.13199999999995 C 1233.33131 352.13199999999995 1227.28865 350.01032999999995 1223.63598 345.76699999999994 C 1219.98398 341.5236699999999 1218.15798 334.86332999999996 1218.15798 325.78599999999994 L 1218.15798 253.67999999999995 L 1193.26298 253.67999999999995 L 1193.26298 329.573 C 1193.26298 343.05433 1197.45231 353.67566999999997 1205.83098 361.43699999999995 C 1214.21031 369.19832999999994 1225.97298 373.07899999999995 1241.11898 373.07899999999995 C 1251.16298 373.07899999999995 1259.86431 371.33332999999993 1267.22298 367.8419999999999 C 1274.58098 364.3506699999999 1280.20731 359.32866999999993 1284.10198 352.77599999999995 C 1287.99598 346.22333 1289.9429799999998 338.59632999999997 1289.9429799999998 329.895 L 1289.9429799999998 253.67999999999998 L 1265.0479799999998 253.67999999999998 z M 1413.20898 253.68 L 1385.4939800000002 253.68 L 1353.5899800000002 293.721 L 1343.7609800000002 307.578 L 1343.7609800000002 253.67999999999998 L 1318.7849800000004 253.67999999999998 L 1318.7849800000004 371.46799999999996 L 1343.7609800000005 371.46799999999996 L 1343.7609800000005 329.412 L 1354.3149800000006 321.839 L 1385.1719800000005 371.468 L 1413.5309800000005 371.468 L 1372.1199800000004 305.80600000000004 z M 1531.48098 279.219 L 1532.20598 279.219 C 1531.56131 294.043 1531.19865 303.174 1531.11798 306.61199999999997 C 1531.03731 310.04932999999994 1530.99698 313.08399999999995 1530.99698 315.71599999999995 L 1530.99698 371.46799999999996 L 1554.28098 371.46799999999996 L 1554.28098 253.67999999999995 L 1520.28198 253.67999999999995 L 1490.71398 343.75299999999993 L 1490.23098 343.75299999999993 L 1462.35498 253.67999999999995 L 1428.35598 253.67999999999995 L 1428.35598 371.46799999999996 L 1450.67298 371.46799999999996 L 1450.67298 316.68199999999996 C 1450.67298 310.39799999999997 1450.16265 297.85666999999995 1449.14198 279.05799999999994 L 1449.86698 279.05799999999994 L 1478.22598 371.46799999999996 L 1501.10698 371.46799999999996 z M 1641.21198 253.196 L 1610.67698 253.196 L 1569.10498 371.468 L 1596.0139800000002 371.468 L 1604.5539800000001 343.43 L 1647.4959800000001 343.43 L 1656.03598 371.468 L 1682.9459800000002 371.468 z M 1610.83898 322.483 C 1619.21765 295.359 1624.29331 278.35967 1626.06598 271.485 C 1626.49531 273.41833 1627.2069800000002 276.05 1628.20098 279.38 C 1629.19431 282.71 1633.63865 297.07767 1641.5339800000002 322.483 z M 1779.78598 253.68 L 1779.78598 309.431 C 1779.78598 315.769 1780.1889800000001 326.592 1780.9949800000002 341.9 L 1780.43098 341.9 L 1729.27098 253.67999999999998 L 1697.76998 253.67999999999998 L 1697.76998 371.46799999999996 L 1720.08698 371.46799999999996 L 1720.08698 316.03799999999995 C 1720.08698 309.32399999999996 1719.57665 298.09833 1718.55598 282.36099999999993 L 1719.28098 282.36099999999993 L 1770.52098 371.46799999999996 L 1802.26398 371.46799999999996 L 1802.26398 253.67999999999995 z" stroke-linecap="round" />
</g>
</svg>